<?xml version="1.0" encoding="UTF-8"?>
<!DOCTYPE svg PUBLIC "-//W3C//DTD SVG 1.1//EN" "http://www.w3.org/Graphics/SVG/1.1/DTD/svg11.dtd">
<svg xmlns="http://www.w3.org/2000/svg" xmlns:xlink="http://www.w3.org/1999/xlink" version="1.1" width="1724px" height="1578px" viewBox="-0.5 -0.5 1724 1578" style="background-color: rgb(255, 255, 255);"><defs><clipPath id="mx-clip-1370-694-260-644-0"><rect x="1370" y="694" width="260" height="644"/></clipPath><clipPath id="mx-clip-734-834-260-364-0"><rect x="734" y="834" width="260" height="364"/></clipPath><clipPath id="mx-clip-734-204-260-364-0"><rect x="734" y="204" width="260" height="364"/></clipPath><clipPath id="mx-clip-1130-244-260-284-0"><rect x="1130" y="244" width="260" height="284"/></clipPath><clipPath id="mx-clip-734-1304-260-84-0"><rect x="734" y="1304" width="260" height="84"/></clipPath><clipPath id="mx-clip-330-314-260-144-0"><rect x="330" y="314" width="260" height="144"/></clipPath><clipPath id="mx-clip-290-764-260-504-0"><rect x="290" y="764" width="260" height="504"/></clipPath><clipPath id="mx-clip-10-64-260-164-0"><rect x="10" y="64" width="260" height="164"/></clipPath></defs><g><path d="M 1500 630 L 1500 376 L 1412.74 376" fill="none" stroke="#000000" stroke-width="2" stroke-miterlimit="10" pointer-events="stroke"/><path d="M 1402.24 376 L 1416.24 369 L 1412.74 376 L 1416.24 383 Z" fill="#000000" stroke="#000000" stroke-width="2" stroke-miterlimit="10" pointer-events="all"/><path d="M 1570 617.26 L 1570 100 L 864 100 L 864 127.26" fill="none" stroke="#000000" stroke-width="2" stroke-miterlimit="10" pointer-events="stroke"/><path d="M 1570 627.76 L 1563 613.76 L 1570 617.26 L 1577 613.76 Z" fill="#000000" stroke="#000000" stroke-width="2" stroke-miterlimit="10" pointer-events="all"/><path d="M 864 137.76 L 857 123.76 L 864 127.26 L 871 123.76 Z" fill="#000000" stroke="#000000" stroke-width="2" stroke-miterlimit="10" pointer-events="all"/><path d="M 1360 682 L 1360 630 L 1640 630 L 1640 682" fill="#d5e8d4" stroke="#82b366" stroke-width="2" stroke-miterlimit="10" pointer-events="all"/><path d="M 1360 682 L 1360 1330 L 1640 1330 L 1640 682" fill="none" stroke="#82b366" stroke-width="2" stroke-miterlimit="10" pointer-events="none"/><path d="M 1360 682 L 1640 682" fill="none" stroke="#82b366" stroke-width="2" stroke-miterlimit="10" pointer-events="none"/><g fill="#000000" font-family="Helvetica" font-weight="bold" pointer-events="none" text-anchor="middle" font-size="24px"><text x="1499.5" y="665.5">sgv:Image</text></g><g fill="#000000" font-family="Helvetica" pointer-events="none" clip-path="url(#mx-clip-1370-694-260-644-0)" font-size="24px"><text x="1371.5" y="717.5">hasTitle</text><text x="1371.5" y="745.5">hasSignature</text><text x="1371.5" y="773.5">hasDate</text><text x="1371.5" y="801.5">hasGeography</text><text x="1371.5" y="829.5">hasPerson</text><text x="1371.5" y="857.5">hasContent</text><text x="1371.5" y="885.5">hasSubject</text><text x="1371.5" y="913.5">hasTag</text><text x="1371.5" y="941.5">salsah:comment</text><text x="1371.5" y="969.5">hasOldnr</text><text x="1371.5" y="997.5">hasIn_collection</text><text x="1371.5" y="1025.5">salsah:part_of</text><text x="1371.5" y="1053.5">hasObjecttype</text><text x="1371.5" y="1081.5">hasModel</text><text x="1371.5" y="1109.5">hasFormat</text><text x="1371.5" y="1137.5">hasCopyright</text><text x="1371.5" y="1165.5">hasRef_img</text><text x="1371.5" y="1193.5">hasGeography_old</text><text x="1371.5" y="1221.5">hasOnalbumpage</text><text x="1371.5" y="1249.5">hasInablum</text><text x="1371.5" y="1277.5">hasverso</text><text x="1371.5" y="1305.5">hasSeqnum</text></g><path d="M 724 822 L 724 770 L 1004 770 L 1004 822" fill="#fff2cc" stroke="#d6b656" stroke-width="2" stroke-miterlimit="10" pointer-events="none"/><path d="M 724 822 L 724 1190 L 1004 1190 L 1004 822" fill="none" stroke="#d6b656" stroke-width="2" stroke-miterlimit="10" pointer-events="none"/><path d="M 724 822 L 1004 822" fill="none" stroke="#d6b656" stroke-width="2" stroke-miterlimit="10" pointer-events="none"/><g fill="#000000" font-family="Helvetica" font-weight="bold" pointer-events="none" text-anchor="middle" font-size="24px"><text x="863.5" y="805.5">sgv:Persons</text></g><g fill="#000000" font-family="Helvetica" pointer-events="none" clip-path="url(#mx-clip-734-834-260-364-0)" font-size="24px"><text x="735.5" y="857.5">hasName</text><text x="735.5" y="885.5">hasDescription_rt</text><text x="735.5" y="913.5">hasFamily</text><text x="735.5" y="941.5">hasJob</text><text x="735.5" y="969.5">hasBirthhdate</text><text x="735.5" y="997.5">hasBirthhplace</text><text x="735.5" y="1025.5">hasBirthhplace_old</text><text x="735.5" y="1053.5">hasDeathdate</text><text x="735.5" y="1081.5">hasDeathplace</text><text x="735.5" y="1109.5">hasDeathplace_old</text><text x="735.5" y="1137.5">hasComment</text><text x="735.5" y="1165.5">hasLiterature</text></g><path d="M 864 560 L 864 757.26" fill="none" stroke="#000000" stroke-width="2" stroke-miterlimit="10" pointer-events="none"/><path d="M 864 767.76 L 857 753.76 L 864 757.26 L 871 753.76 Z" fill="#000000" stroke="#000000" stroke-width="2" stroke-miterlimit="10" pointer-events="none"/><path d="M 724 192 L 724 140 L 1004 140 L 1004 192" fill="#dae8fc" stroke="#6c8ebf" stroke-width="2" stroke-miterlimit="10" pointer-events="none"/><path d="M 724 192 L 724 560 L 1004 560 L 1004 192" fill="none" stroke="#6c8ebf" stroke-width="2" stroke-miterlimit="10" pointer-events="none"/><path d="M 724 192 L 1004 192" fill="none" stroke="#6c8ebf" stroke-width="2" stroke-miterlimit="10" pointer-events="none"/><g fill="#000000" font-family="Helvetica" font-weight="bold" pointer-events="none" text-anchor="middle" font-size="24px"><text x="863.5" y="175.5">Collection</text></g><g fill="#000000" font-family="Helvetica" pointer-events="none" clip-path="url(#mx-clip-734-204-260-364-0)" font-size="24px"><text x="735.5" y="227.5">hasSignature</text><text x="735.5" y="255.5">hasTitle</text><text x="735.5" y="283.5">hasPerson</text><text x="735.5" y="311.5">hasDate</text><text x="735.5" y="339.5">hasDescription_rt</text><text x="735.5" y="367.5">hasIndexing_rt</text><text x="735.5" y="395.5">hasRestoration</text><text x="735.5" y="423.5">hasComment</text><text x="735.5" y="451.5">hasLiterature</text><text x="735.5" y="479.5">hasStandorte</text><text x="735.5" y="507.5">hasDefault_image</text><text x="735.5" y="535.5">hasEmbedded_video</text></g><path d="M 1120 232 L 1120 180 L 1400 180 L 1400 232" fill="#ffe6cc" stroke="#d79b00" stroke-width="2" stroke-miterlimit="10" pointer-events="none"/><path d="M 1120 232 L 1120 520 L 1400 520 L 1400 232" fill="none" stroke="#d79b00" stroke-width="2" stroke-miterlimit="10" pointer-events="none"/><path d="M 1120 232 L 1400 232" fill="none" stroke="#d79b00" stroke-width="2" stroke-miterlimit="10" pointer-events="none"/><g fill="#000000" font-family="Helvetica" font-weight="bold" pointer-events="none" text-anchor="middle" font-size="24px"><text x="1259.5" y="215.5">sgv:Album</text></g><g fill="#000000" font-family="Helvetica" pointer-events="none" clip-path="url(#mx-clip-1130-244-260-284-0)" font-size="24px"><text x="1131.5" y="267.5">hasSignature</text><text x="1131.5" y="295.5">hasTitle</text><text x="1131.5" y="323.5">hasPerson</text><text x="1131.5" y="351.5">hasDate</text><text x="1131.5" y="379.5">hasDescription_rt</text><text x="1131.5" y="407.5">hasIndexing_rt</text><text x="1131.5" y="435.5">hasIn_collection</text><text x="1131.5" y="463.5">hasComment</text><text x="1131.5" y="491.5">hasObjecttype</text></g><path d="M 724 1292 L 724 1240 L 1004 1240 L 1004 1292" fill="#e1d5e7" stroke="#9673a6" stroke-width="2" stroke-miterlimit="10" pointer-events="none"/><path d="M 724 1292 L 724 1380 L 1004 1380 L 1004 1292" fill="none" stroke="#9673a6" stroke-width="2" stroke-miterlimit="10" pointer-events="none"/><path d="M 724 1292 L 1004 1292" fill="none" stroke="#9673a6" stroke-width="2" stroke-miterlimit="10" pointer-events="none"/><g fill="#000000" font-family="Helvetica" font-weight="bold" pointer-events="none" text-anchor="middle" font-size="24px"><text x="863.5" y="1275.5">sgv:Subject</text></g><g fill="#000000" font-family="Helvetica" pointer-events="none" clip-path="url(#mx-clip-734-1304-260-84-0)" font-size="24px"><text x="735.5" y="1327.5">hasName</text><text x="735.5" y="1355.5">hasDescription_rt</text></g><path d="M 320 302 L 320 250 L 600 250 L 600 302" fill="#ffffff" stroke="#000000" stroke-width="2" stroke-miterlimit="10" pointer-events="none"/><path d="M 320 302 L 320 450 L 600 450 L 600 302" fill="none" stroke="#000000" stroke-width="2" stroke-miterlimit="10" pointer-events="none"/><path d="M 320 302 L 600 302" fill="none" stroke="#000000" stroke-width="2" stroke-miterlimit="10" pointer-events="none"/><g fill="#000000" font-family="Helvetica" font-weight="bold" pointer-events="none" text-anchor="middle" font-size="24px"><text x="459.5" y="285.5">sgv:Tonbildschau</text></g><g fill="#000000" font-family="Helvetica" pointer-events="none" clip-path="url(#mx-clip-330-314-260-144-0)" font-size="24px"><text x="331.5" y="337.5">hasSignature</text><text x="331.5" y="365.5">hasTitle</text><text x="331.5" y="393.5">hasDate</text><text x="331.5" y="421.5">hascomment_rt</text></g><path d="M 420 700 L 420 500 L 711.26 500" fill="none" stroke="#000000" stroke-width="2" stroke-miterlimit="10" pointer-events="none"/><path d="M 721.76 500 L 707.76 507 L 711.26 500 L 707.76 493 Z" fill="#000000" stroke="#000000" stroke-width="2" stroke-miterlimit="10" pointer-events="none"/><path d="M 280 752 L 280 700 L 560 700 L 560 752" fill="#f8cecc" stroke="#b85450" stroke-width="2" stroke-miterlimit="10" pointer-events="none"/><path d="M 280 752 L 280 1260 L 560 1260 L 560 752" fill="none" stroke="#b85450" stroke-width="2" stroke-miterlimit="10" pointer-events="none"/><path d="M 280 752 L 560 752" fill="none" stroke="#b85450" stroke-width="2" stroke-miterlimit="10" pointer-events="none"/><g fill="#000000" font-family="Helvetica" font-weight="bold" pointer-events="none" text-anchor="middle" font-size="24px"><text x="419.5" y="735.5">sgv:Film</text></g><g fill="#000000" font-family="Helvetica" pointer-events="none" clip-path="url(#mx-clip-290-764-260-504-0)" font-size="24px"><text x="291.5" y="787.5">hasSignature</text><text x="291.5" y="815.5">hasTitle</text><text x="291.5" y="843.5">hasDate</text><text x="291.5" y="871.5">hasGeography</text><text x="291.5" y="899.5">hasPerson</text><text x="291.5" y="927.5">hasContent</text><text x="291.5" y="955.5">hasOldnr</text><text x="291.5" y="983.5">salsah:comment</text><text x="291.5" y="1011.5">hasTag</text><text x="291.5" y="1039.5">hasObjecttype</text><text x="291.5" y="1067.5">hasModel</text><text x="291.5" y="1095.5">hasSubject</text><text x="291.5" y="1123.5">hasLang</text><text x="291.5" y="1151.5">hasDuration</text><text x="291.5" y="1179.5">hasFps</text><text x="291.5" y="1207.5">hasIn_collection</text><text x="291.5" y="1235.5">hasCopyright</text></g><path d="M 0 52 L 0 0 L 280 0 L 280 52" fill="#f5f5f5" stroke="#666666" stroke-width="2" stroke-miterlimit="10" pointer-events="none"/><path d="M 0 52 L 0 220 L 280 220 L 280 52" fill="none" stroke="#666666" stroke-width="2" stroke-miterlimit="10" pointer-events="none"/><path d="M 0 52 L 280 52" fill="none" stroke="#666666" stroke-width="2" stroke-miterlimit="10" pointer-events="none"/><g fill="#333333" font-family="Helvetica" font-weight="bold" pointer-events="none" text-anchor="middle" font-size="24px"><text x="139.5" y="35.5">sgv:Sequence</text></g><g fill="#000000" font-family="Helvetica" pointer-events="none" clip-path="url(#mx-clip-10-64-260-164-0)" font-size="24px"><text x="11.5" y="87.5">hasTitle</text><text x="11.5" y="115.5">hasInterval</text><text x="11.5" y="143.5">hasFilmres</text><text x="11.5" y="171.5">hasContent</text><text x="11.5" y="199.5">hasDescription_rt</text></g><path d="M 1360 1006 L 1016.74 1006" fill="none" stroke="#000000" stroke-width="2" stroke-miterlimit="10" pointer-events="none"/><path d="M 1006.24 1006 L 1020.24 999 L 1016.74 1006 L 1020.24 1013 Z" fill="#000000" stroke="#000000" stroke-width="2" stroke-miterlimit="10" pointer-events="none"/><path d="M 560 1006 L 711.26 1006" fill="none" stroke="#000000" stroke-width="2" stroke-miterlimit="10" pointer-events="none"/><path d="M 721.76 1006 L 707.76 1013 L 711.26 1006 L 707.76 999 Z" fill="#000000" stroke="#000000" stroke-width="2" stroke-miterlimit="10" pointer-events="none"/><path d="M 1360 1121.34 L 1182 1121.4 L 1182 1336 L 1016.74 1336" fill="none" stroke="#000000" stroke-width="2" stroke-miterlimit="10" pointer-events="none"/><path d="M 1006.24 1336 L 1020.24 1329 L 1016.74 1336 L 1020.24 1343 Z" fill="#000000" stroke="#000000" stroke-width="2" stroke-miterlimit="10" pointer-events="none"/><path d="M 1251.88 522.02 L 1251.8 645 L 934 645 L 934 757.26" fill="none" stroke="#000000" stroke-width="2" stroke-miterlimit="10" pointer-events="none"/><path d="M 934 767.76 L 927 753.76 L 934 757.26 L 941 753.76 Z" fill="#000000" stroke="#000000" stroke-width="2" stroke-miterlimit="10" pointer-events="none"/><path d="M 1120 376 L 1016.74 376" fill="none" stroke="#000000" stroke-width="2" stroke-miterlimit="10" pointer-events="none"/><path d="M 1006.24 376 L 1020.24 369 L 1016.74 376 L 1020.24 383 Z" fill="#000000" stroke="#000000" stroke-width="2" stroke-miterlimit="10" pointer-events="none"/><path d="M 414.12 1260 L 414.2 1336 L 711.26 1336" fill="none" stroke="#000000" stroke-width="2" stroke-miterlimit="10" pointer-events="none"/><path d="M 721.76 1336 L 707.76 1343 L 711.26 1336 L 707.76 1329 Z" fill="#000000" stroke="#000000" stroke-width="2" stroke-miterlimit="10" pointer-events="none"/><path d="M 724 376 L 612.74 376" fill="none" stroke="#000000" stroke-width="2" stroke-miterlimit="10" pointer-events="none"/><path d="M 602.24 376 L 616.24 369 L 612.74 376 L 616.24 383 Z" fill="#000000" stroke="#000000" stroke-width="2" stroke-miterlimit="10" pointer-events="none"/><path d="M 60 1460 L 1720 1460" fill="none" stroke="#000000" stroke-width="2" stroke-miterlimit="10" stroke-dasharray="6 6" pointer-events="none"/><path d="M 720 1560 L 720 1520 L 1000 1520 L 1000 1560" fill="#bac8d3" stroke="#23445d" stroke-width="2" stroke-miterlimit="10" pointer-events="none"/><path d="M 720 1560 L 1000 1560" fill="none" stroke="#23445d" stroke-width="2" stroke-miterlimit="10" pointer-events="none"/><g fill="#000000" font-family="Helvetica" font-weight="bold" pointer-events="none" text-anchor="middle" font-size="24px"><text x="859.5" y="1549.5">Geonames</text></g><path d="M 280 1006 L 240 1006 L 240 1540 L 707.26 1540" fill="none" stroke="#000000" stroke-width="2" stroke-miterlimit="10" pointer-events="none"/><path d="M 717.76 1540 L 703.76 1547 L 707.26 1540 L 703.76 1533 Z" fill="#000000" stroke="#000000" stroke-width="2" stroke-miterlimit="10" pointer-events="none"/><path d="M 1487.96 1330 L 1488 1540 L 1012.74 1540" fill="none" stroke="#000000" stroke-width="2" stroke-miterlimit="10" pointer-events="none"/><path d="M 1002.24 1540 L 1016.24 1533 L 1012.74 1540 L 1016.24 1547 Z" fill="#000000" stroke="#000000" stroke-width="2" stroke-miterlimit="10" pointer-events="none"/></g></svg>